# xmcd
#
# Track frame offsets:
#	150
#	37661
#	66175
#	97650
#	131143
#	159913
#	189052
#	216095
#	246478
#	268044
#	288695
#	292157
#
# Disc length: 4480 seconds
#
# Revision: 0
# Processed by: cddbd v1.5.1PL0 Copyright (c) Steve Scherf et al.
# Submitted via: audiograbber 1.83.01
#
DISCID=af117e0c
DTITLE=Timo Maas - First Day April
DYEAR=2005
DGENRE=Techno
TTITLE0=LocoDice - Minina Brasiliera
TTITLE1=Bug and Tanzmann - Byte The Frog
TTITLE2=Hardfloor - Da Revival
TTITLE3=Timo Maas - First Day (Daniel Taylor Dub)
TTITLE4=Trentmoeller - Beta Boy
TTITLE5=Timo Maas - First Day (Timo Maas Club Remix)
TTITLE6=DJ Hyper - Come With Me (Daniel Taylor Remix)
TTITLE7=Paolo Mojo - Discotech
TTITLE8=Timo Maas - First Day (Buick Project Dub)
TTITLE9=Simon - Got Me
TTITLE10=Interlude
TTITLE11=Jamiroquai - Feels Just Like It Shoul (Timo Maas Remix)
EXTD=
EXTT0=
EXTT1=
EXTT2=
EXTT3=
EXTT4=
EXTT5=
EXTT6=
EXTT7=
EXTT8=
EXTT9=
EXTT10=
EXTT11=
PLAYORDER=
